<?xml version="1.0" standalone="no"?><!DOCTYPE svg PUBLIC "-//W3C//DTD SVG 1.1//EN" "http://www.w3.org/Graphics/SVG/1.1/DTD/svg11.dtd"><svg t="1550121992911" class="icon" style="" viewBox="0 0 1024 1024" version="1.1" xmlns="http://www.w3.org/2000/svg" p-id="1116" xmlns:xlink="http://www.w3.org/1999/xlink" width="32" height="32"><defs><style type="text/css"></style></defs><path d="M620.757 170.667c-155.434 0-285.76 107.2-321.194 251.669a182.336 182.336 0 0 0-9.558-0.256c-113.024 0-204.672 91.627-204.672 204.672a203.797 203.797 0 0 0 59.947 144.64 203.733 203.733 0 0 0 144.725 59.861 204.437 204.437 0 0 0 144.79-60.202c32.106-32.107 50.133-75.094 55.317-122.838L416 642.39c-16.79-2.09-22.187-14.805-11.968-28.373L529.6 458.666c10.155-13.546 23.957-11.882 30.613 3.755l71.19 173.974c6.656 15.637-1.75 26.688-18.56 24.618l-55.126-5.077c-6.25 57.643-32.192 108.523-68.458 148.864A329.963 329.963 0 0 0 620.757 832c182.614 0 330.667-148.053 330.667-330.667 0-182.613-148.053-330.666-330.667-330.666z" fill="#1afa29" p-id="1117"></path></svg>