<?xml version="1.0" standalone="no"?><!DOCTYPE svg PUBLIC "-//W3C//DTD SVG 1.1//EN" "http://www.w3.org/Graphics/SVG/1.1/DTD/svg11.dtd"><svg t="1550122232738" class="icon" style="" viewBox="0 0 1024 1024" version="1.1" xmlns="http://www.w3.org/2000/svg" p-id="6335" xmlns:xlink="http://www.w3.org/1999/xlink" width="32" height="32"><defs><style type="text/css"></style></defs><path d="M893.456828 709.055005" p-id="6336" fill="#1296db"></path><path d="M491.889987 337.939709" p-id="6337" fill="#1296db"></path><path d="M568.154951 338.993714" p-id="6338" fill="#1296db"></path><path d="M957.329555 316.566936c-23.74889-31.844266-72.608691-63.954591-133.394103-71.808466 5.588275-17.800411 9.174963-37.445844 10.657734-58.690704 2.850931-40.815591-2.993171-74.390267-3.242857-75.795267-2.979868-16.790408-16.110933-29.937846-32.893154-32.939203-2.39556-0.429789-4.796236-0.64059-7.172353-0.64059-14.251585 0-27.692712 7.505951-35.07996 20.09978-19.028379 32.253588-51.264571 67.782779-72.496128 75.150584-41.60456-26.2652-93.867878-40.437991-152.375409-41.195238-0.908696-0.062422-1.824555-0.092098-2.749624-0.092098-0.357134 0-0.712221 0.005117-1.065262 0.01228-0.355087-0.007163-0.708128-0.01228-1.065262-0.01228-0.927115 0-1.845021 0.029676-2.755764 0.092098-58.500369 0.760317-110.76164 14.930037-152.367223 41.195238-21.236674-7.369851-53.482075-42.913369-72.505337-75.172073-7.401574-12.55392-20.840654-20.045545-35.065634-20.047592-2.39249 0-4.805446 0.213871-7.218402 0.647753-16.753569 3.02387-29.870308 16.132422-32.846082 32.894178-1.76418 9.92914-11.889795 73.821309 7.175423 134.506437-60.670801 7.902994-109.437481 39.950897-133.155672 71.751161-16.750499 22.458501-22.535249 46.384423-16.291035 67.37141 12.311397 41.376363 61.907978 67.080791 129.432885 67.080791 26.872021 0 53.380768-4.174066 77.605495-11.95017l34.764781 258.95582c-1.578961 4.487198-3.849678 9.904581-6.208399 15.530718-8.450463 20.169365-18.97005 46.167482-18.97005 75.740008 0 72.982198 56.741305 124.853589 137.984654 124.853589l90.420359 0 2.130524 0 90.420359 0c81.243349 0 137.984654-51.871391 137.984654-124.853589 0-29.572526-10.519588-55.120388-18.97005-75.289754-2.358721-5.626137-4.629437-11.269671-6.208399-15.755846l34.764781-259.069407c24.226774 7.777127 50.734498 11.895935 77.607542 11.895935 67.528999 0 117.125581-25.736151 129.432885-67.115584C979.858664 362.936009 974.074937 339.02032 957.329555 316.566936zM934.624437 372.290051c-7.144724 24.01802-45.799092 38.002522-90.440825 38.002522-37.678134 0-79.624479-9.967002-110.462834-32.270984l-43.3626 322.997392c5.27412 23.605627 25.952068 54.469566 25.952068 88.106664 0 53.754275-43.561122 84.047208-97.303116 84.047208l-90.420359 0-2.130524 0-90.420359 0c-53.741995 0-97.303116-30.292933-97.303116-84.047208 0-33.637098 20.677948-64.113203 25.952068-87.718831L321.320193 378.213971c-30.843472 22.307052-72.780607 32.175817-110.461811 32.175817-44.63457 0-83.296101-14.035668-90.441848-38.051641-8.448416-28.390607 53.212946-88.713484 138.91177-88.708368 14.59951 0.002047 29.91124 1.74269 45.678342 5.700839-62.258972-53.657061-41.257659-171.950234-41.257659-171.950234s56.562227 96.627734 114.841561 96.627734c1.130753 0 2.891863-0.039909 4.02364-0.11461 37.637202-27.804253 84.059488-42.132586 145.081283-42.49279 61.021795 0.360204 107.272165 14.685467 144.905274 42.491767 1.13587 0.074701 2.490727 0.11154 3.625574 0.11154 58.277288 0 115.068735-96.630804 115.068735-96.630804s20.996197 118.284987-41.262776 171.942047c15.773242-3.960195 31.071669-5.711072 45.678342-5.711072C881.401258 283.607266 943.070806 343.901491 934.624437 372.290051z" p-id="6339" fill="#1296db"></path><path d="M669.376307 413.20695c0-14.808264-11.988032-26.818809-26.820855-26.818809-14.843056 0-26.825972 12.022825-26.825972 26.818809 0 14.830777 11.982916 26.829042 26.825972 26.829042C657.388275 440.035992 669.376307 428.025447 669.376307 413.20695z" p-id="6340" fill="#1296db"></path><path d="M404.962172 386.388141c-14.843056 0-26.825972 12.022825-26.825972 26.818809 0 14.830777 11.982916 26.829042 26.825972 26.829042 14.833847 0 26.820855-12.010545 26.820855-26.829042C431.78405 398.398686 419.796018 386.388141 404.962172 386.388141z" p-id="6341" fill="#1296db"></path><path d="M400.901693 751.926418c-14.842033 0-26.823925 12.022825-26.823925 26.816762 0 14.833847 11.981892 26.831089 26.823925 26.831089 14.836917 0 26.823925-12.010545 26.823925-26.831089C427.725618 763.936963 415.738609 751.926418 400.901693 751.926418z" p-id="6342" fill="#1296db"></path><path d="M653.713582 751.926418c-14.842033 0-26.823925 12.022825-26.823925 26.816762 0 14.833847 11.981892 26.831089 26.823925 26.831089 14.835893 0 26.823925-12.010545 26.823925-26.831089C680.537508 763.936963 668.549475 751.926418 653.713582 751.926418z" p-id="6343" fill="#1296db"></path></svg>